<svg width="16" height="16" viewBox="0 0 16 16" fill="none" xmlns="http://www.w3.org/2000/svg">
<g clip-path="url(#clip0_529_2859)">
<path d="M16 7.6667C15.9984 7.21722 15.8953 6.77392 15.6983 6.36988C15.5014 5.96585 15.2157 5.61152 14.8626 5.33336C15.3511 4.94831 15.7072 4.42039 15.8812 3.82325C16.0553 3.22612 16.0386 2.58955 15.8335 2.00235C15.6284 1.41515 15.2452 0.906608 14.7372 0.547662C14.2293 0.188715 13.622 -0.00273129 13 2.94434e-05H2.99998C2.37801 -0.00273129 1.77068 0.188715 1.26273 0.547662C0.754773 0.906608 0.371524 1.41515 0.166445 2.00235C-0.0386346 2.58955 -0.0553161 3.22612 0.118727 3.82325C0.292771 4.42039 0.648859 4.94831 1.13732 5.33336C0.783013 5.61041 0.496454 5.96451 0.299374 6.36879C0.102295 6.77308 -0.000129292 7.21693 -0.000129292 7.6667C-0.000129292 8.11646 0.102295 8.56032 0.299374 8.9646C0.496454 9.36889 0.783013 9.72298 1.13732 10C0.648859 10.3851 0.292771 10.913 0.118727 11.5101C-0.0553161 12.1073 -0.0386346 12.7438 0.166445 13.331C0.371524 13.9182 0.754773 14.4268 1.26273 14.7857C1.77068 15.1447 2.37801 15.3361 2.99998 15.3334H13C13.622 15.3361 14.2293 15.1447 14.7372 14.7857C15.2452 14.4268 15.6284 13.9182 15.8335 13.331C16.0386 12.7438 16.0553 12.1073 15.8812 11.5101C15.7072 10.913 15.3511 10.3851 14.8626 10C15.2157 9.72187 15.5014 9.36755 15.6983 8.96351C15.8953 8.55947 15.9984 8.11617 16 7.6667ZM1.33332 3.00003C1.33332 2.558 1.50891 2.13408 1.82147 1.82152C2.13403 1.50896 2.55796 1.33336 2.99998 1.33336H3.33332V2.00003C3.33332 2.17684 3.40355 2.34641 3.52858 2.47143C3.6536 2.59646 3.82317 2.6667 3.99998 2.6667C4.17679 2.6667 4.34636 2.59646 4.47139 2.47143C4.59641 2.34641 4.66665 2.17684 4.66665 2.00003V1.33336H5.99998V2.00003C5.99998 2.17684 6.07022 2.34641 6.19525 2.47143C6.32027 2.59646 6.48984 2.6667 6.66665 2.6667C6.84346 2.6667 7.01303 2.59646 7.13805 2.47143C7.26308 2.34641 7.33332 2.17684 7.33332 2.00003V1.33336H13C13.442 1.33336 13.8659 1.50896 14.1785 1.82152C14.4911 2.13408 14.6666 2.558 14.6666 3.00003C14.6666 3.44206 14.4911 3.86598 14.1785 4.17854C13.8659 4.4911 13.442 4.6667 13 4.6667H2.99998C2.55796 4.6667 2.13403 4.4911 1.82147 4.17854C1.50891 3.86598 1.33332 3.44206 1.33332 3.00003ZM14.6666 12.3334C14.6666 12.7754 14.4911 13.1993 14.1785 13.5119C13.8659 13.8244 13.442 14 13 14H2.99998C2.55796 14 2.13403 13.8244 1.82147 13.5119C1.50891 13.1993 1.33332 12.7754 1.33332 12.3334C1.33332 11.8913 1.50891 11.4674 1.82147 11.1549C2.13403 10.8423 2.55796 10.6667 2.99998 10.6667H3.33332V11.3334C3.33332 11.5102 3.40355 11.6797 3.52858 11.8048C3.6536 11.9298 3.82317 12 3.99998 12C4.17679 12 4.34636 11.9298 4.47139 11.8048C4.59641 11.6797 4.66665 11.5102 4.66665 11.3334V10.6667H5.99998V11.3334C5.99998 11.5102 6.07022 11.6797 6.19525 11.8048C6.32027 11.9298 6.48984 12 6.66665 12C6.84346 12 7.01303 11.9298 7.13805 11.8048C7.26308 11.6797 7.33332 11.5102 7.33332 11.3334V10.6667H13C13.442 10.6667 13.8659 10.8423 14.1785 11.1549C14.4911 11.4674 14.6666 11.8913 14.6666 12.3334ZM2.99998 9.33336C2.55796 9.33336 2.13403 9.15777 1.82147 8.84521C1.50891 8.53265 1.33332 8.10872 1.33332 7.6667C1.33332 7.22467 1.50891 6.80075 1.82147 6.48818C2.13403 6.17562 2.55796 6.00003 2.99998 6.00003H3.33332V6.6667C3.33332 6.84351 3.40355 7.01308 3.52858 7.1381C3.6536 7.26312 3.82317 7.33336 3.99998 7.33336C4.17679 7.33336 4.34636 7.26312 4.47139 7.1381C4.59641 7.01308 4.66665 6.84351 4.66665 6.6667V6.00003H5.99998V6.6667C5.99998 6.84351 6.07022 7.01308 6.19525 7.1381C6.32027 7.26312 6.48984 7.33336 6.66665 7.33336C6.84346 7.33336 7.01303 7.26312 7.13805 7.1381C7.26308 7.01308 7.33332 6.84351 7.33332 6.6667V6.00003H13C13.442 6.00003 13.8659 6.17562 14.1785 6.48818C14.4911 6.80075 14.6666 7.22467 14.6666 7.6667C14.6666 8.10872 14.4911 8.53265 14.1785 8.84521C13.8659 9.15777 13.442 9.33336 13 9.33336H2.99998Z" fill="black"/>
</g>
<defs>
<clipPath id="clip0_529_2859">
<rect width="16" height="16" fill="white"/>
</clipPath>
</defs>
</svg>
